<?xml version="1.0" encoding="utf-8"?>
<!-- Generator: Adobe Illustrator 26.3.1, SVG Export Plug-In . SVG Version: 6.00 Build 0)  -->
<svg version="1.1" id="Ebene_1" xmlns="http://www.w3.org/2000/svg" xmlns:xlink="http://www.w3.org/1999/xlink" x="0px" y="0px"
	 viewBox="0 0 14.46 14.46" style="enable-background:new 0 0 14.46 14.46;" xml:space="preserve">
<style type="text/css">
	.st0{fill:none;stroke:#000000;stroke-width:0.75;stroke-miterlimit:10;}
	.st1{fill:none;stroke:#000000;stroke-width:0.75;stroke-linejoin:round;stroke-miterlimit:10;}
	.st2{fill:none;stroke:#000000;stroke-width:0.75;stroke-linecap:round;stroke-miterlimit:10;}
</style>
<path class="st0" d="M6.12,12.74c0.46-0.05,0.64-0.42,1.08-0.38c0.17,0.01,0.22,0.02,0.42,0.16c0.54,0.38,1.24,0.11,1.24,0.11
	c0.4-0.22,1.45-0.86,2.13-2.23c0.5-1.01,0.57-1.96,0.57-2.46c0.01-0.09,0.15-1.93-1.04-2.85C10.24,4.86,9.87,4.7,9.4,4.66
	c0,0-0.62-0.07-1.43,0.25c-0.8,0.32-1.49,0.01-1.49,0.01C6.23,4.81,5.62,4.58,4.87,4.76C4.74,4.79,4.33,4.9,3.94,5.2
	C2.97,5.96,2.91,7.41,2.89,7.93c-0.06,1.27,0.38,2.21,0.54,2.55c0.56,1.17,1.44,1.84,2.04,2.11C5.7,12.69,5.88,12.76,6.12,12.74z"/>
<path class="st1" d="M7.19,4.33c1-1.18-2.91-2.62-2.91-2.62S6.18,5.51,7.19,4.33z"/>
<line class="st2" x1="7.23" y1="4.79" x2="8.34" y2="2.6"/>
</svg>
